<mxfile host="Electron" agent="Mozilla/5.0 (X11; Linux x86_64) AppleWebKit/537.36 (KHTML, like Gecko) draw.io/26.2.15 Chrome/134.0.6998.205 Electron/35.4.0 Safari/537.36" version="26.2.15">
  <diagram name="Page-1" id="yw7uzkfrFI3tsPfTm3u0">
    <mxGraphModel dx="476" dy="406" grid="1" gridSize="10" guides="1" tooltips="1" connect="1" arrows="1" fold="1" page="1" pageScale="1" pageWidth="850" pageHeight="1100" math="0" shadow="0">
      <root>
        <mxCell id="0" />
        <mxCell id="1" parent="0" />
        <mxCell id="SbQJvmoPVhkG7Eqfk1Kw-50" value="" style="endArrow=none;html=1;rounded=0;exitX=0.5;exitY=1;exitDx=0;exitDy=0;exitPerimeter=0;" edge="1" parent="1" source="SbQJvmoPVhkG7Eqfk1Kw-49">
          <mxGeometry width="50" height="50" relative="1" as="geometry">
            <mxPoint x="440" y="380" as="sourcePoint" />
            <mxPoint x="260" y="410" as="targetPoint" />
            <Array as="points">
              <mxPoint x="280" y="490" />
              <mxPoint x="260" y="490" />
            </Array>
          </mxGeometry>
        </mxCell>
        <mxCell id="SbQJvmoPVhkG7Eqfk1Kw-32" value="" style="endArrow=none;html=1;rounded=0;exitX=0;exitY=0.5;exitDx=0;exitDy=0;exitPerimeter=0;" edge="1" parent="1" source="SbQJvmoPVhkG7Eqfk1Kw-30">
          <mxGeometry width="50" height="50" relative="1" as="geometry">
            <mxPoint x="439.87" y="330" as="sourcePoint" />
            <mxPoint x="380" y="410" as="targetPoint" />
            <Array as="points">
              <mxPoint x="340" y="410" />
            </Array>
          </mxGeometry>
        </mxCell>
        <mxCell id="SbQJvmoPVhkG7Eqfk1Kw-36" value="" style="endArrow=none;html=1;rounded=0;exitX=0;exitY=0.5;exitDx=0;exitDy=0;exitPerimeter=0;" edge="1" parent="1" source="SbQJvmoPVhkG7Eqfk1Kw-34">
          <mxGeometry width="50" height="50" relative="1" as="geometry">
            <mxPoint x="519.87" y="330" as="sourcePoint" />
            <mxPoint x="460" y="410" as="targetPoint" />
            <Array as="points">
              <mxPoint x="420" y="410" />
            </Array>
          </mxGeometry>
        </mxCell>
        <mxCell id="SbQJvmoPVhkG7Eqfk1Kw-40" value="" style="endArrow=none;html=1;rounded=0;exitX=0;exitY=0.5;exitDx=0;exitDy=0;exitPerimeter=0;" edge="1" parent="1" source="SbQJvmoPVhkG7Eqfk1Kw-38">
          <mxGeometry width="50" height="50" relative="1" as="geometry">
            <mxPoint x="659.72" y="330" as="sourcePoint" />
            <mxPoint x="600" y="410" as="targetPoint" />
            <Array as="points">
              <mxPoint x="560" y="410" />
            </Array>
          </mxGeometry>
        </mxCell>
        <mxCell id="SbQJvmoPVhkG7Eqfk1Kw-4" value="" style="endArrow=none;html=1;rounded=0;exitX=0.75;exitY=1;exitDx=0;exitDy=0;entryX=0.937;entryY=0.192;entryDx=0;entryDy=0;entryPerimeter=0;" edge="1" parent="1" target="aNke-gL7oU3gdszmX9jL-92">
          <mxGeometry width="50" height="50" relative="1" as="geometry">
            <mxPoint x="600" y="400" as="sourcePoint" />
            <mxPoint x="590" y="448" as="targetPoint" />
            <Array as="points">
              <mxPoint x="600" y="456" />
            </Array>
          </mxGeometry>
        </mxCell>
        <mxCell id="SbQJvmoPVhkG7Eqfk1Kw-16" value="" style="endArrow=none;html=1;rounded=0;exitX=0.5;exitY=1;exitDx=0;exitDy=0;exitPerimeter=0;" edge="1" parent="1">
          <mxGeometry width="50" height="50" relative="1" as="geometry">
            <mxPoint x="580" y="480" as="sourcePoint" />
            <mxPoint x="540" y="458" as="targetPoint" />
            <Array as="points">
              <mxPoint x="580" y="490" />
              <mxPoint x="540" y="490" />
            </Array>
          </mxGeometry>
        </mxCell>
        <mxCell id="SbQJvmoPVhkG7Eqfk1Kw-15" value="" style="endArrow=none;html=1;rounded=0;exitX=0.5;exitY=1;exitDx=0;exitDy=0;exitPerimeter=0;" edge="1" parent="1">
          <mxGeometry width="50" height="50" relative="1" as="geometry">
            <mxPoint x="440" y="480" as="sourcePoint" />
            <mxPoint x="400" y="458" as="targetPoint" />
            <Array as="points">
              <mxPoint x="440" y="490" />
              <mxPoint x="400" y="490" />
            </Array>
          </mxGeometry>
        </mxCell>
        <mxCell id="SbQJvmoPVhkG7Eqfk1Kw-14" value="" style="endArrow=none;html=1;rounded=0;exitX=0.5;exitY=1;exitDx=0;exitDy=0;exitPerimeter=0;" edge="1" parent="1" source="SbQJvmoPVhkG7Eqfk1Kw-8">
          <mxGeometry width="50" height="50" relative="1" as="geometry">
            <mxPoint x="350" y="420" as="sourcePoint" />
            <mxPoint x="320" y="458" as="targetPoint" />
            <Array as="points">
              <mxPoint x="360" y="490" />
              <mxPoint x="320" y="490" />
            </Array>
          </mxGeometry>
        </mxCell>
        <mxCell id="SbQJvmoPVhkG7Eqfk1Kw-3" value="" style="endArrow=none;html=1;rounded=0;exitX=0.75;exitY=1;exitDx=0;exitDy=0;entryX=1;entryY=0.25;entryDx=0;entryDy=0;" edge="1" parent="1" target="aNke-gL7oU3gdszmX9jL-86">
          <mxGeometry width="50" height="50" relative="1" as="geometry">
            <mxPoint x="460" y="400" as="sourcePoint" />
            <mxPoint x="450" y="448" as="targetPoint" />
            <Array as="points">
              <mxPoint x="460" y="458" />
            </Array>
          </mxGeometry>
        </mxCell>
        <mxCell id="aNke-gL7oU3gdszmX9jL-122" style="edgeStyle=orthogonalEdgeStyle;rounded=0;orthogonalLoop=1;jettySize=auto;html=1;endArrow=none;startFill=0;exitX=1;exitY=0.25;exitDx=0;exitDy=0;entryX=0;entryY=0.75;entryDx=0;entryDy=0;entryPerimeter=0;" parent="1" source="aNke-gL7oU3gdszmX9jL-39" target="aNke-gL7oU3gdszmX9jL-116" edge="1">
          <mxGeometry relative="1" as="geometry">
            <Array as="points">
              <mxPoint x="300" y="458" />
              <mxPoint x="300" y="440" />
              <mxPoint x="270" y="440" />
            </Array>
            <mxPoint x="290" y="460" as="sourcePoint" />
            <mxPoint x="260" y="440" as="targetPoint" />
          </mxGeometry>
        </mxCell>
        <mxCell id="aNke-gL7oU3gdszmX9jL-112" value="" style="endArrow=block;html=1;rounded=0;exitX=0;exitY=0.75;exitDx=0;exitDy=0;endFill=1;strokeWidth=3;fillColor=#dae8fc;strokeColor=#6c8ebf;" parent="1" source="aNke-gL7oU3gdszmX9jL-92" edge="1">
          <mxGeometry width="50" height="50" relative="1" as="geometry">
            <mxPoint x="600" y="472.93" as="sourcePoint" />
            <mxPoint x="520" y="473" as="targetPoint" />
          </mxGeometry>
        </mxCell>
        <mxCell id="aNke-gL7oU3gdszmX9jL-3" value="1" style="rounded=0;whiteSpace=wrap;html=1;" parent="1" vertex="1">
          <mxGeometry x="350" y="280" width="40" height="120" as="geometry" />
        </mxCell>
        <mxCell id="aNke-gL7oU3gdszmX9jL-9" value="" style="shape=flexArrow;endArrow=classic;html=1;rounded=0;entryX=1;entryY=0.75;entryDx=0;entryDy=0;exitX=0;exitY=0.75;exitDx=0;exitDy=0;fillColor=#dae8fc;strokeColor=#6c8ebf;" parent="1" source="aNke-gL7oU3gdszmX9jL-12" target="aNke-gL7oU3gdszmX9jL-3" edge="1">
          <mxGeometry width="50" height="50" relative="1" as="geometry">
            <mxPoint x="240" y="328" as="sourcePoint" />
            <mxPoint x="278" y="329" as="targetPoint" />
          </mxGeometry>
        </mxCell>
        <mxCell id="aNke-gL7oU3gdszmX9jL-12" value="" style="rounded=0;whiteSpace=wrap;html=1;" parent="1" vertex="1">
          <mxGeometry x="430" y="280" width="40" height="120" as="geometry" />
        </mxCell>
        <mxCell id="aNke-gL7oU3gdszmX9jL-13" value="" style="shape=flexArrow;endArrow=classic;html=1;rounded=0;entryX=0;entryY=0.25;entryDx=0;entryDy=0;fillColor=#f8cecc;strokeColor=#b85450;" parent="1" target="aNke-gL7oU3gdszmX9jL-12" edge="1">
          <mxGeometry width="50" height="50" relative="1" as="geometry">
            <mxPoint x="390" y="310" as="sourcePoint" />
            <mxPoint x="278" y="321" as="targetPoint" />
          </mxGeometry>
        </mxCell>
        <mxCell id="aNke-gL7oU3gdszmX9jL-16" value="&lt;span style=&quot;background-color: transparent; color: light-dark(rgb(0, 0, 0), rgb(255, 255, 255));&quot;&gt;0 (Top)&lt;/span&gt;" style="rounded=0;whiteSpace=wrap;html=1;" parent="1" vertex="1">
          <mxGeometry x="270" y="280" width="40" height="120" as="geometry" />
        </mxCell>
        <mxCell id="aNke-gL7oU3gdszmX9jL-17" value="" style="shape=flexArrow;endArrow=classic;html=1;rounded=0;entryX=1;entryY=0.75;entryDx=0;entryDy=0;exitX=0;exitY=0.75;exitDx=0;exitDy=0;fillColor=#dae8fc;strokeColor=#6c8ebf;" parent="1" target="aNke-gL7oU3gdszmX9jL-16" edge="1">
          <mxGeometry width="50" height="50" relative="1" as="geometry">
            <mxPoint x="350" y="370" as="sourcePoint" />
            <mxPoint x="198" y="329" as="targetPoint" />
          </mxGeometry>
        </mxCell>
        <mxCell id="aNke-gL7oU3gdszmX9jL-20" value="" style="shape=flexArrow;endArrow=classic;html=1;rounded=0;entryX=0;entryY=0.25;entryDx=0;entryDy=0;fillColor=#f8cecc;strokeColor=#b85450;" parent="1" edge="1">
          <mxGeometry width="50" height="50" relative="1" as="geometry">
            <mxPoint x="310" y="310" as="sourcePoint" />
            <mxPoint x="350" y="310" as="targetPoint" />
          </mxGeometry>
        </mxCell>
        <mxCell id="aNke-gL7oU3gdszmX9jL-26" value="2" style="rounded=0;whiteSpace=wrap;html=1;" parent="1" vertex="1">
          <mxGeometry x="430" y="280" width="40" height="120" as="geometry" />
        </mxCell>
        <mxCell id="aNke-gL7oU3gdszmX9jL-27" value="" style="shape=flexArrow;endArrow=classic;html=1;rounded=0;entryX=1;entryY=0.75;entryDx=0;entryDy=0;exitX=0;exitY=0.75;exitDx=0;exitDy=0;fillColor=#dae8fc;strokeColor=#6c8ebf;" parent="1" target="aNke-gL7oU3gdszmX9jL-26" edge="1">
          <mxGeometry width="50" height="50" relative="1" as="geometry">
            <mxPoint x="510" y="370" as="sourcePoint" />
            <mxPoint x="358" y="329" as="targetPoint" />
          </mxGeometry>
        </mxCell>
        <mxCell id="aNke-gL7oU3gdszmX9jL-30" value="" style="shape=flexArrow;endArrow=classic;html=1;rounded=0;entryX=0;entryY=0.25;entryDx=0;entryDy=0;fillColor=#f8cecc;strokeColor=#b85450;" parent="1" edge="1">
          <mxGeometry width="50" height="50" relative="1" as="geometry">
            <mxPoint x="470" y="310" as="sourcePoint" />
            <mxPoint x="510" y="310" as="targetPoint" />
          </mxGeometry>
        </mxCell>
        <mxCell id="aNke-gL7oU3gdszmX9jL-32" value="" style="endArrow=none;html=1;rounded=0;entryX=0.25;entryY=0;entryDx=0;entryDy=0;exitX=0.75;exitY=0;exitDx=0;exitDy=0;" parent="1" source="aNke-gL7oU3gdszmX9jL-16" target="aNke-gL7oU3gdszmX9jL-16" edge="1">
          <mxGeometry width="50" height="50" relative="1" as="geometry">
            <mxPoint x="360" y="450" as="sourcePoint" />
            <mxPoint x="410" y="400" as="targetPoint" />
            <Array as="points">
              <mxPoint x="290" y="290" />
            </Array>
          </mxGeometry>
        </mxCell>
        <mxCell id="aNke-gL7oU3gdszmX9jL-34" value="" style="endArrow=none;html=1;rounded=0;entryX=0.25;entryY=0;entryDx=0;entryDy=0;exitX=0.75;exitY=0;exitDx=0;exitDy=0;" parent="1" edge="1">
          <mxGeometry width="50" height="50" relative="1" as="geometry">
            <mxPoint x="380" y="280" as="sourcePoint" />
            <mxPoint x="360" y="280" as="targetPoint" />
            <Array as="points">
              <mxPoint x="370" y="290" />
            </Array>
          </mxGeometry>
        </mxCell>
        <mxCell id="aNke-gL7oU3gdszmX9jL-35" value="" style="endArrow=none;html=1;rounded=0;entryX=0.25;entryY=0;entryDx=0;entryDy=0;exitX=0.75;exitY=0;exitDx=0;exitDy=0;" parent="1" edge="1">
          <mxGeometry width="50" height="50" relative="1" as="geometry">
            <mxPoint x="460" y="280" as="sourcePoint" />
            <mxPoint x="440" y="280" as="targetPoint" />
            <Array as="points">
              <mxPoint x="450" y="290" />
            </Array>
          </mxGeometry>
        </mxCell>
        <mxCell id="aNke-gL7oU3gdszmX9jL-47" value="" style="group" parent="1" vertex="1" connectable="0">
          <mxGeometry x="270" y="450" width="20" height="30" as="geometry" />
        </mxCell>
        <mxCell id="aNke-gL7oU3gdszmX9jL-39" value="" style="rounded=0;whiteSpace=wrap;html=1;" parent="aNke-gL7oU3gdszmX9jL-47" vertex="1">
          <mxGeometry width="20" height="30" as="geometry" />
        </mxCell>
        <mxCell id="aNke-gL7oU3gdszmX9jL-40" value="" style="endArrow=none;html=1;rounded=0;entryX=0.25;entryY=0;entryDx=0;entryDy=0;exitX=0.75;exitY=0;exitDx=0;exitDy=0;" parent="aNke-gL7oU3gdszmX9jL-47" edge="1">
          <mxGeometry width="50" height="50" relative="1" as="geometry">
            <mxPoint x="15" as="sourcePoint" />
            <mxPoint x="5" as="targetPoint" />
            <Array as="points">
              <mxPoint x="10" y="10" />
            </Array>
          </mxGeometry>
        </mxCell>
        <mxCell id="SbQJvmoPVhkG7Eqfk1Kw-49" value="" style="pointerEvents=1;verticalLabelPosition=bottom;shadow=0;dashed=0;align=center;html=1;verticalAlign=top;shape=mxgraph.electrical.signal_sources.source;aspect=fixed;points=[[0.5,0,0],[1,0.5,0],[0.5,1,0],[0,0.5,0]];elSignalType=dc2;" vertex="1" parent="aNke-gL7oU3gdszmX9jL-47">
          <mxGeometry y="10" width="20" height="20" as="geometry" />
        </mxCell>
        <mxCell id="aNke-gL7oU3gdszmX9jL-57" value="" style="shape=flexArrow;endArrow=classic;html=1;rounded=0;entryX=1;entryY=0.75;entryDx=0;entryDy=0;exitX=0;exitY=0.75;exitDx=0;exitDy=0;fillColor=#dae8fc;strokeColor=#6c8ebf;" parent="1" source="aNke-gL7oU3gdszmX9jL-59" edge="1">
          <mxGeometry width="50" height="50" relative="1" as="geometry">
            <mxPoint x="380" y="328" as="sourcePoint" />
            <mxPoint x="530" y="370" as="targetPoint" />
          </mxGeometry>
        </mxCell>
        <mxCell id="aNke-gL7oU3gdszmX9jL-59" value="" style="rounded=0;whiteSpace=wrap;html=1;" parent="1" vertex="1">
          <mxGeometry x="570" y="280" width="40" height="120" as="geometry" />
        </mxCell>
        <mxCell id="aNke-gL7oU3gdszmX9jL-60" value="" style="shape=flexArrow;endArrow=classic;html=1;rounded=0;entryX=0;entryY=0.25;entryDx=0;entryDy=0;fillColor=#f8cecc;strokeColor=#b85450;" parent="1" target="aNke-gL7oU3gdszmX9jL-59" edge="1">
          <mxGeometry width="50" height="50" relative="1" as="geometry">
            <mxPoint x="530" y="310" as="sourcePoint" />
            <mxPoint x="418" y="321" as="targetPoint" />
          </mxGeometry>
        </mxCell>
        <mxCell id="aNke-gL7oU3gdszmX9jL-62" value="n-1" style="rounded=0;whiteSpace=wrap;html=1;" parent="1" vertex="1">
          <mxGeometry x="570" y="280" width="40" height="120" as="geometry" />
        </mxCell>
        <mxCell id="aNke-gL7oU3gdszmX9jL-67" value="" style="endArrow=none;html=1;rounded=0;entryX=0.25;entryY=0;entryDx=0;entryDy=0;exitX=0.75;exitY=0;exitDx=0;exitDy=0;" parent="1" edge="1">
          <mxGeometry width="50" height="50" relative="1" as="geometry">
            <mxPoint x="600" y="280" as="sourcePoint" />
            <mxPoint x="580" y="280" as="targetPoint" />
            <Array as="points">
              <mxPoint x="590" y="290" />
            </Array>
          </mxGeometry>
        </mxCell>
        <mxCell id="aNke-gL7oU3gdszmX9jL-79" value="" style="group" parent="1" vertex="1" connectable="0">
          <mxGeometry x="350" y="450" width="20" height="30" as="geometry" />
        </mxCell>
        <mxCell id="aNke-gL7oU3gdszmX9jL-80" value="" style="rounded=0;whiteSpace=wrap;html=1;" parent="aNke-gL7oU3gdszmX9jL-79" vertex="1">
          <mxGeometry width="20" height="30" as="geometry" />
        </mxCell>
        <mxCell id="aNke-gL7oU3gdszmX9jL-81" value="" style="endArrow=none;html=1;rounded=0;entryX=0.25;entryY=0;entryDx=0;entryDy=0;exitX=0.75;exitY=0;exitDx=0;exitDy=0;" parent="aNke-gL7oU3gdszmX9jL-79" edge="1">
          <mxGeometry width="50" height="50" relative="1" as="geometry">
            <mxPoint x="15" as="sourcePoint" />
            <mxPoint x="5" as="targetPoint" />
            <Array as="points">
              <mxPoint x="10" y="10" />
            </Array>
          </mxGeometry>
        </mxCell>
        <mxCell id="SbQJvmoPVhkG7Eqfk1Kw-8" value="" style="pointerEvents=1;verticalLabelPosition=bottom;shadow=0;dashed=0;align=center;html=1;verticalAlign=top;shape=mxgraph.electrical.signal_sources.source;aspect=fixed;points=[[0.5,0,0],[1,0.5,0],[0.5,1,0],[0,0.5,0]];elSignalType=dc2;" vertex="1" parent="aNke-gL7oU3gdszmX9jL-79">
          <mxGeometry y="10" width="20" height="20" as="geometry" />
        </mxCell>
        <mxCell id="aNke-gL7oU3gdszmX9jL-82" value="" style="endArrow=none;html=1;rounded=0;exitX=0.75;exitY=1;exitDx=0;exitDy=0;entryX=1;entryY=0.25;entryDx=0;entryDy=0;" parent="1" target="aNke-gL7oU3gdszmX9jL-80" edge="1" source="aNke-gL7oU3gdszmX9jL-3">
          <mxGeometry width="50" height="50" relative="1" as="geometry">
            <mxPoint x="390" y="383" as="sourcePoint" />
            <mxPoint x="390" y="450" as="targetPoint" />
            <Array as="points">
              <mxPoint x="380" y="458" />
            </Array>
          </mxGeometry>
        </mxCell>
        <mxCell id="aNke-gL7oU3gdszmX9jL-85" value="" style="group" parent="1" vertex="1" connectable="0">
          <mxGeometry x="430" y="450" width="20" height="30" as="geometry" />
        </mxCell>
        <mxCell id="aNke-gL7oU3gdszmX9jL-86" value="" style="rounded=0;whiteSpace=wrap;html=1;" parent="aNke-gL7oU3gdszmX9jL-85" vertex="1">
          <mxGeometry width="20" height="30" as="geometry" />
        </mxCell>
        <mxCell id="aNke-gL7oU3gdszmX9jL-87" value="" style="endArrow=none;html=1;rounded=0;entryX=0.25;entryY=0;entryDx=0;entryDy=0;exitX=0.75;exitY=0;exitDx=0;exitDy=0;" parent="aNke-gL7oU3gdszmX9jL-85" edge="1">
          <mxGeometry width="50" height="50" relative="1" as="geometry">
            <mxPoint x="15" as="sourcePoint" />
            <mxPoint x="5" as="targetPoint" />
            <Array as="points">
              <mxPoint x="10" y="10" />
            </Array>
          </mxGeometry>
        </mxCell>
        <mxCell id="SbQJvmoPVhkG7Eqfk1Kw-12" value="" style="pointerEvents=1;verticalLabelPosition=bottom;shadow=0;dashed=0;align=center;html=1;verticalAlign=top;shape=mxgraph.electrical.signal_sources.source;aspect=fixed;points=[[0.5,0,0],[1,0.5,0],[0.5,1,0],[0,0.5,0]];elSignalType=dc2;" vertex="1" parent="aNke-gL7oU3gdszmX9jL-85">
          <mxGeometry y="10" width="20" height="20" as="geometry" />
        </mxCell>
        <mxCell id="aNke-gL7oU3gdszmX9jL-91" value="" style="group" parent="1" vertex="1" connectable="0">
          <mxGeometry x="570" y="450" width="20" height="30" as="geometry" />
        </mxCell>
        <mxCell id="aNke-gL7oU3gdszmX9jL-92" value="" style="rounded=0;whiteSpace=wrap;html=1;" parent="aNke-gL7oU3gdszmX9jL-91" vertex="1">
          <mxGeometry width="20" height="30" as="geometry" />
        </mxCell>
        <mxCell id="aNke-gL7oU3gdszmX9jL-93" value="" style="endArrow=none;html=1;rounded=0;entryX=0.25;entryY=0;entryDx=0;entryDy=0;exitX=0.75;exitY=0;exitDx=0;exitDy=0;" parent="aNke-gL7oU3gdszmX9jL-91" edge="1">
          <mxGeometry width="50" height="50" relative="1" as="geometry">
            <mxPoint x="15" as="sourcePoint" />
            <mxPoint x="5" as="targetPoint" />
            <Array as="points">
              <mxPoint x="10" y="10" />
            </Array>
          </mxGeometry>
        </mxCell>
        <mxCell id="SbQJvmoPVhkG7Eqfk1Kw-13" value="" style="pointerEvents=1;verticalLabelPosition=bottom;shadow=0;dashed=0;align=center;html=1;verticalAlign=top;shape=mxgraph.electrical.signal_sources.source;aspect=fixed;points=[[0.5,0,0],[1,0.5,0],[0.5,1,0],[0,0.5,0]];elSignalType=dc2;" vertex="1" parent="aNke-gL7oU3gdszmX9jL-91">
          <mxGeometry y="10" width="20" height="20" as="geometry" />
        </mxCell>
        <mxCell id="aNke-gL7oU3gdszmX9jL-98" value="" style="endArrow=none;dashed=1;html=1;dashPattern=1 3;strokeWidth=2;rounded=0;" parent="1" edge="1">
          <mxGeometry width="50" height="50" relative="1" as="geometry">
            <mxPoint x="516" y="491" as="sourcePoint" />
            <mxPoint x="516" y="276" as="targetPoint" />
          </mxGeometry>
        </mxCell>
        <mxCell id="aNke-gL7oU3gdszmX9jL-101" value="0" style="text;html=1;align=center;verticalAlign=middle;resizable=0;points=[];autosize=1;strokeColor=none;fillColor=none;" parent="1" vertex="1">
          <mxGeometry x="614" y="457" width="30" height="30" as="geometry" />
        </mxCell>
        <mxCell id="aNke-gL7oU3gdszmX9jL-102" value="" style="endArrow=block;html=1;rounded=0;exitX=1;exitY=0.25;exitDx=0;exitDy=0;entryX=0;entryY=0.25;entryDx=0;entryDy=0;endFill=1;strokeWidth=3;fillColor=#f8cecc;strokeColor=#b85450;" parent="1" source="aNke-gL7oU3gdszmX9jL-39" target="aNke-gL7oU3gdszmX9jL-80" edge="1">
          <mxGeometry width="50" height="50" relative="1" as="geometry">
            <mxPoint x="490" y="270" as="sourcePoint" />
            <mxPoint x="540" y="220" as="targetPoint" />
            <Array as="points" />
          </mxGeometry>
        </mxCell>
        <mxCell id="aNke-gL7oU3gdszmX9jL-103" value="" style="endArrow=block;html=1;rounded=0;exitX=1;exitY=0.25;exitDx=0;exitDy=0;entryX=0;entryY=0.25;entryDx=0;entryDy=0;endFill=1;strokeWidth=3;fillColor=#f8cecc;strokeColor=#b85450;" parent="1" edge="1">
          <mxGeometry width="50" height="50" relative="1" as="geometry">
            <mxPoint x="370" y="458" as="sourcePoint" />
            <mxPoint x="430" y="458" as="targetPoint" />
          </mxGeometry>
        </mxCell>
        <mxCell id="aNke-gL7oU3gdszmX9jL-104" value="" style="endArrow=block;html=1;rounded=0;exitX=1;exitY=0.25;exitDx=0;exitDy=0;entryX=0;entryY=0.25;entryDx=0;entryDy=0;endFill=1;strokeWidth=3;fillColor=#f8cecc;strokeColor=#b85450;" parent="1" edge="1">
          <mxGeometry width="50" height="50" relative="1" as="geometry">
            <mxPoint x="450" y="458" as="sourcePoint" />
            <mxPoint x="510" y="458" as="targetPoint" />
          </mxGeometry>
        </mxCell>
        <mxCell id="aNke-gL7oU3gdszmX9jL-107" value="" style="endArrow=block;html=1;rounded=0;entryX=0;entryY=0.25;entryDx=0;entryDy=0;endFill=1;strokeWidth=3;fillColor=#f8cecc;strokeColor=#b85450;" parent="1" target="aNke-gL7oU3gdszmX9jL-92" edge="1">
          <mxGeometry width="50" height="50" relative="1" as="geometry">
            <mxPoint x="520" y="458" as="sourcePoint" />
            <mxPoint x="600" y="458" as="targetPoint" />
          </mxGeometry>
        </mxCell>
        <mxCell id="aNke-gL7oU3gdszmX9jL-108" value="" style="endArrow=block;html=1;rounded=0;exitX=0;exitY=0.75;exitDx=0;exitDy=0;entryX=1;entryY=0.75;entryDx=0;entryDy=0;endFill=1;strokeWidth=3;fillColor=#dae8fc;strokeColor=#6c8ebf;" parent="1" source="aNke-gL7oU3gdszmX9jL-80" target="aNke-gL7oU3gdszmX9jL-39" edge="1">
          <mxGeometry width="50" height="50" relative="1" as="geometry">
            <mxPoint x="300" y="467" as="sourcePoint" />
            <mxPoint x="360" y="467" as="targetPoint" />
          </mxGeometry>
        </mxCell>
        <mxCell id="aNke-gL7oU3gdszmX9jL-109" value="" style="endArrow=block;html=1;rounded=0;exitX=0;exitY=0.75;exitDx=0;exitDy=0;entryX=1;entryY=0.75;entryDx=0;entryDy=0;endFill=1;strokeWidth=3;fillColor=#dae8fc;strokeColor=#6c8ebf;" parent="1" edge="1">
          <mxGeometry width="50" height="50" relative="1" as="geometry">
            <mxPoint x="430" y="472" as="sourcePoint" />
            <mxPoint x="370" y="472" as="targetPoint" />
          </mxGeometry>
        </mxCell>
        <mxCell id="aNke-gL7oU3gdszmX9jL-110" value="" style="endArrow=block;html=1;rounded=0;exitX=0;exitY=0.75;exitDx=0;exitDy=0;entryX=1;entryY=0.75;entryDx=0;entryDy=0;endFill=1;strokeWidth=3;fillColor=#dae8fc;strokeColor=#6c8ebf;" parent="1" edge="1">
          <mxGeometry width="50" height="50" relative="1" as="geometry">
            <mxPoint x="510" y="472.8" as="sourcePoint" />
            <mxPoint x="450" y="472.8" as="targetPoint" />
          </mxGeometry>
        </mxCell>
        <mxCell id="aNke-gL7oU3gdszmX9jL-113" value="" style="endArrow=block;html=1;rounded=0;endFill=1;strokeWidth=3;fillColor=#dae8fc;strokeColor=#6c8ebf;entryX=1;entryY=0.75;entryDx=0;entryDy=0;" parent="1" target="aNke-gL7oU3gdszmX9jL-92" edge="1">
          <mxGeometry width="50" height="50" relative="1" as="geometry">
            <mxPoint x="621" y="472" as="sourcePoint" />
            <mxPoint x="590" y="472.93" as="targetPoint" />
          </mxGeometry>
        </mxCell>
        <mxCell id="aNke-gL7oU3gdszmX9jL-114" value="" style="endArrow=block;html=1;rounded=0;entryX=0;entryY=0.25;entryDx=0;entryDy=0;endFill=1;strokeWidth=3;fillColor=#f8cecc;strokeColor=#b85450;" parent="1" target="aNke-gL7oU3gdszmX9jL-39" edge="1">
          <mxGeometry width="50" height="50" relative="1" as="geometry">
            <mxPoint x="240" y="458" as="sourcePoint" />
            <mxPoint x="270" y="458" as="targetPoint" />
          </mxGeometry>
        </mxCell>
        <mxCell id="aNke-gL7oU3gdszmX9jL-116" value="" style="verticalLabelPosition=bottom;shadow=0;dashed=0;align=center;html=1;verticalAlign=top;shape=mxgraph.electrical.logic_gates.logic_gate;operation=or;" parent="1" vertex="1">
          <mxGeometry x="270" y="420" width="26" height="16" as="geometry" />
        </mxCell>
        <mxCell id="SbQJvmoPVhkG7Eqfk1Kw-1" value="" style="endArrow=block;html=1;rounded=0;entryX=0;entryY=0.25;entryDx=0;entryDy=0;endFill=1;strokeWidth=3;fillColor=#f8cecc;strokeColor=#b85450;entryPerimeter=0;" edge="1" parent="1" target="aNke-gL7oU3gdszmX9jL-116">
          <mxGeometry width="50" height="50" relative="1" as="geometry">
            <mxPoint x="240" y="424" as="sourcePoint" />
            <mxPoint x="264" y="410" as="targetPoint" />
          </mxGeometry>
        </mxCell>
        <mxCell id="SbQJvmoPVhkG7Eqfk1Kw-2" value="" style="endArrow=none;html=1;rounded=0;entryX=0.75;entryY=1;entryDx=0;entryDy=0;exitX=1;exitY=0.5;exitDx=0;exitDy=0;exitPerimeter=0;" edge="1" parent="1" source="aNke-gL7oU3gdszmX9jL-116" target="aNke-gL7oU3gdszmX9jL-16">
          <mxGeometry width="50" height="50" relative="1" as="geometry">
            <mxPoint x="300" y="420" as="sourcePoint" />
            <mxPoint x="380" y="360" as="targetPoint" />
            <Array as="points">
              <mxPoint x="300" y="428" />
            </Array>
          </mxGeometry>
        </mxCell>
        <mxCell id="SbQJvmoPVhkG7Eqfk1Kw-5" value="1" style="text;html=1;align=center;verticalAlign=middle;resizable=0;points=[];autosize=1;strokeColor=none;fillColor=none;" vertex="1" parent="1">
          <mxGeometry x="216" y="443" width="30" height="30" as="geometry" />
        </mxCell>
        <mxCell id="SbQJvmoPVhkG7Eqfk1Kw-9" value="" style="pointerEvents=1;verticalLabelPosition=bottom;shadow=0;dashed=0;align=center;html=1;verticalAlign=top;shape=mxgraph.electrical.signal_sources.source;aspect=fixed;points=[[0.5,0,0],[1,0.5,0],[0.5,1,0],[0,0.5,0]];elSignalType=dc2;" vertex="1" parent="1">
          <mxGeometry x="370" y="380" width="20" height="20" as="geometry" />
        </mxCell>
        <mxCell id="SbQJvmoPVhkG7Eqfk1Kw-10" value="" style="pointerEvents=1;verticalLabelPosition=bottom;shadow=0;dashed=0;align=center;html=1;verticalAlign=top;shape=mxgraph.electrical.signal_sources.source;aspect=fixed;points=[[0.5,0,0],[1,0.5,0],[0.5,1,0],[0,0.5,0]];elSignalType=dc2;" vertex="1" parent="1">
          <mxGeometry x="450" y="380" width="20" height="20" as="geometry" />
        </mxCell>
        <mxCell id="SbQJvmoPVhkG7Eqfk1Kw-11" value="" style="pointerEvents=1;verticalLabelPosition=bottom;shadow=0;dashed=0;align=center;html=1;verticalAlign=top;shape=mxgraph.electrical.signal_sources.source;aspect=fixed;points=[[0.5,0,0],[1,0.5,0],[0.5,1,0],[0,0.5,0]];elSignalType=dc2;" vertex="1" parent="1">
          <mxGeometry x="590" y="380" width="20" height="20" as="geometry" />
        </mxCell>
        <mxCell id="SbQJvmoPVhkG7Eqfk1Kw-17" value="" style="pointerEvents=1;verticalLabelPosition=bottom;shadow=0;dashed=0;align=center;html=1;verticalAlign=top;shape=mxgraph.electrical.signal_sources.source;aspect=fixed;points=[[0.5,0,0],[1,0.5,0],[0.5,1,0],[0,0.5,0]];elSignalType=dc2;" vertex="1" parent="1">
          <mxGeometry x="290" y="380" width="20" height="20" as="geometry" />
        </mxCell>
        <mxCell id="SbQJvmoPVhkG7Eqfk1Kw-22" value="" style="verticalLabelPosition=bottom;shadow=0;dashed=0;align=center;html=1;verticalAlign=top;shape=mxgraph.electrical.mosfets1.mosfet_n_no_bulk;rotation=-90;" vertex="1" parent="1">
          <mxGeometry x="252" y="265" width="15" height="16" as="geometry" />
        </mxCell>
        <mxCell id="SbQJvmoPVhkG7Eqfk1Kw-23" value="" style="endArrow=none;html=1;rounded=0;exitX=0.7;exitY=1;exitDx=0;exitDy=0;exitPerimeter=0;" edge="1" parent="1" source="SbQJvmoPVhkG7Eqfk1Kw-22">
          <mxGeometry width="50" height="50" relative="1" as="geometry">
            <mxPoint x="360" y="330" as="sourcePoint" />
            <mxPoint x="330" y="270" as="targetPoint" />
          </mxGeometry>
        </mxCell>
        <mxCell id="SbQJvmoPVhkG7Eqfk1Kw-24" value="" style="endArrow=none;html=1;rounded=0;exitX=0.5;exitY=0;exitDx=0;exitDy=0;" edge="1" parent="1" source="aNke-gL7oU3gdszmX9jL-16">
          <mxGeometry width="50" height="50" relative="1" as="geometry">
            <mxPoint x="360" y="330" as="sourcePoint" />
            <mxPoint x="290" y="270" as="targetPoint" />
          </mxGeometry>
        </mxCell>
        <mxCell id="SbQJvmoPVhkG7Eqfk1Kw-28" value="" style="endArrow=none;html=1;rounded=0;exitX=0;exitY=0.5;exitDx=0;exitDy=0;exitPerimeter=0;" edge="1" parent="1" source="SbQJvmoPVhkG7Eqfk1Kw-22">
          <mxGeometry width="50" height="50" relative="1" as="geometry">
            <mxPoint x="360" y="330" as="sourcePoint" />
            <mxPoint x="300" y="410" as="targetPoint" />
            <Array as="points">
              <mxPoint x="260" y="410" />
            </Array>
          </mxGeometry>
        </mxCell>
        <mxCell id="SbQJvmoPVhkG7Eqfk1Kw-29" value="" style="endArrow=none;html=1;rounded=0;entryX=0.7;entryY=0;entryDx=0;entryDy=0;entryPerimeter=0;" edge="1" parent="1" target="SbQJvmoPVhkG7Eqfk1Kw-22">
          <mxGeometry width="50" height="50" relative="1" as="geometry">
            <mxPoint x="240" y="270" as="sourcePoint" />
            <mxPoint x="360" y="330" as="targetPoint" />
          </mxGeometry>
        </mxCell>
        <mxCell id="SbQJvmoPVhkG7Eqfk1Kw-30" value="" style="verticalLabelPosition=bottom;shadow=0;dashed=0;align=center;html=1;verticalAlign=top;shape=mxgraph.electrical.mosfets1.mosfet_n_no_bulk;rotation=-90;" vertex="1" parent="1">
          <mxGeometry x="331.87" y="265" width="15" height="16" as="geometry" />
        </mxCell>
        <mxCell id="SbQJvmoPVhkG7Eqfk1Kw-31" value="" style="endArrow=none;html=1;rounded=0;exitX=0.5;exitY=0;exitDx=0;exitDy=0;" edge="1" parent="1">
          <mxGeometry width="50" height="50" relative="1" as="geometry">
            <mxPoint x="369.87" y="280" as="sourcePoint" />
            <mxPoint x="369.87" y="270" as="targetPoint" />
          </mxGeometry>
        </mxCell>
        <mxCell id="SbQJvmoPVhkG7Eqfk1Kw-33" value="" style="endArrow=none;html=1;rounded=0;entryX=0.7;entryY=0;entryDx=0;entryDy=0;entryPerimeter=0;" edge="1" parent="1" target="SbQJvmoPVhkG7Eqfk1Kw-30">
          <mxGeometry width="50" height="50" relative="1" as="geometry">
            <mxPoint x="319.87" y="270" as="sourcePoint" />
            <mxPoint x="439.87" y="330" as="targetPoint" />
          </mxGeometry>
        </mxCell>
        <mxCell id="SbQJvmoPVhkG7Eqfk1Kw-34" value="" style="verticalLabelPosition=bottom;shadow=0;dashed=0;align=center;html=1;verticalAlign=top;shape=mxgraph.electrical.mosfets1.mosfet_n_no_bulk;rotation=-90;" vertex="1" parent="1">
          <mxGeometry x="411.87" y="265" width="15" height="16" as="geometry" />
        </mxCell>
        <mxCell id="SbQJvmoPVhkG7Eqfk1Kw-35" value="" style="endArrow=none;html=1;rounded=0;exitX=0.5;exitY=0;exitDx=0;exitDy=0;" edge="1" parent="1">
          <mxGeometry width="50" height="50" relative="1" as="geometry">
            <mxPoint x="449.87" y="280" as="sourcePoint" />
            <mxPoint x="449.87" y="270" as="targetPoint" />
          </mxGeometry>
        </mxCell>
        <mxCell id="SbQJvmoPVhkG7Eqfk1Kw-37" value="" style="endArrow=none;html=1;rounded=0;entryX=0.7;entryY=0;entryDx=0;entryDy=0;entryPerimeter=0;" edge="1" parent="1" target="SbQJvmoPVhkG7Eqfk1Kw-34">
          <mxGeometry width="50" height="50" relative="1" as="geometry">
            <mxPoint x="399.87" y="270" as="sourcePoint" />
            <mxPoint x="519.87" y="330" as="targetPoint" />
          </mxGeometry>
        </mxCell>
        <mxCell id="SbQJvmoPVhkG7Eqfk1Kw-38" value="" style="verticalLabelPosition=bottom;shadow=0;dashed=0;align=center;html=1;verticalAlign=top;shape=mxgraph.electrical.mosfets1.mosfet_n_no_bulk;rotation=-90;" vertex="1" parent="1">
          <mxGeometry x="551.72" y="265" width="15" height="16" as="geometry" />
        </mxCell>
        <mxCell id="SbQJvmoPVhkG7Eqfk1Kw-39" value="" style="endArrow=none;html=1;rounded=0;exitX=0.5;exitY=0;exitDx=0;exitDy=0;" edge="1" parent="1">
          <mxGeometry width="50" height="50" relative="1" as="geometry">
            <mxPoint x="589.72" y="280" as="sourcePoint" />
            <mxPoint x="589.72" y="270" as="targetPoint" />
          </mxGeometry>
        </mxCell>
        <mxCell id="SbQJvmoPVhkG7Eqfk1Kw-41" value="" style="endArrow=none;html=1;rounded=0;entryX=0.7;entryY=0;entryDx=0;entryDy=0;entryPerimeter=0;" edge="1" parent="1" target="SbQJvmoPVhkG7Eqfk1Kw-38">
          <mxGeometry width="50" height="50" relative="1" as="geometry">
            <mxPoint x="539.72" y="270" as="sourcePoint" />
            <mxPoint x="659.72" y="330" as="targetPoint" />
          </mxGeometry>
        </mxCell>
        <mxCell id="SbQJvmoPVhkG7Eqfk1Kw-42" value="" style="endArrow=none;html=1;rounded=0;entryX=0.7;entryY=1;entryDx=0;entryDy=0;entryPerimeter=0;" edge="1" parent="1" target="SbQJvmoPVhkG7Eqfk1Kw-38">
          <mxGeometry width="50" height="50" relative="1" as="geometry">
            <mxPoint x="590" y="270" as="sourcePoint" />
            <mxPoint x="480" y="330" as="targetPoint" />
          </mxGeometry>
        </mxCell>
        <mxCell id="SbQJvmoPVhkG7Eqfk1Kw-43" value="" style="endArrow=none;html=1;rounded=0;exitX=0.7;exitY=1;exitDx=0;exitDy=0;exitPerimeter=0;" edge="1" parent="1" source="SbQJvmoPVhkG7Eqfk1Kw-34">
          <mxGeometry width="50" height="50" relative="1" as="geometry">
            <mxPoint x="440" y="380" as="sourcePoint" />
            <mxPoint x="550" y="270" as="targetPoint" />
          </mxGeometry>
        </mxCell>
        <mxCell id="SbQJvmoPVhkG7Eqfk1Kw-44" value="" style="endArrow=none;html=1;rounded=0;exitX=0.7;exitY=1;exitDx=0;exitDy=0;exitPerimeter=0;" edge="1" parent="1" source="SbQJvmoPVhkG7Eqfk1Kw-30">
          <mxGeometry width="50" height="50" relative="1" as="geometry">
            <mxPoint x="440" y="380" as="sourcePoint" />
            <mxPoint x="400" y="270" as="targetPoint" />
          </mxGeometry>
        </mxCell>
      </root>
    </mxGraphModel>
  </diagram>
</mxfile>
